<svg width="760" height="320" viewBox="0 0 760 320" fill="none" xmlns="http://www.w3.org/2000/svg" role="img" aria-labelledby="title desc">
  <title id="title">AIGEN 2026</title>
  <desc id="desc">Logotipo provisional para el workshop AIGEN 2026 sobre inteligencia artificial y genómica para la salud pública.</desc>
  <rect width="760" height="320" rx="36" fill="white"/>
  <rect x="18" y="18" width="724" height="284" rx="28" fill="url(#panel)" stroke="url(#stroke)" stroke-width="2"/>
  <g opacity="0.9">
    <path d="M80 215C127 178.333 174 141.667 221 105" stroke="url(#line1)" stroke-width="8" stroke-linecap="round"/>
    <path d="M104 95C146.667 124.333 189.333 153.667 232 183" stroke="url(#line2)" stroke-width="8" stroke-linecap="round"/>
    <circle cx="78" cy="217" r="18" fill="#0B1A3A"/>
    <circle cx="104" cy="95" r="14" fill="#17B6B4"/>
    <circle cx="168" cy="150" r="15" fill="#6D4DF2"/>
    <circle cx="223" cy="104" r="14" fill="#4DD7F0"/>
    <circle cx="232" cy="183" r="16" fill="#D84FD3"/>
  </g>
  <g opacity="0.2">
    <circle cx="630" cy="84" r="54" fill="#4DD7F0"/>
    <circle cx="670" cy="110" r="36" fill="#D84FD3"/>
  </g>
  <text x="280" y="138" fill="#0B1A3A" font-family="Manrope, Segoe UI, sans-serif" font-size="76" font-weight="800" letter-spacing="-2">AIGEN</text>
  <text x="544" y="138" fill="#6D4DF2" font-family="Manrope, Segoe UI, sans-serif" font-size="76" font-weight="800" letter-spacing="-2">2026</text>
  <text x="282" y="182" fill="#17233F" font-family="Source Serif 4, Georgia, serif" font-size="24" font-weight="600">IA y Genómica para la Salud Pública</text>
  <rect x="282" y="208" width="296" height="12" rx="6" fill="url(#bar)"/>
  <text x="282" y="252" fill="#5F6B85" font-family="Manrope, Segoe UI, sans-serif" font-size="20" font-weight="700">Workshop | 22 y 23 de julio de 2026</text>
  <defs>
    <linearGradient id="panel" x1="60" y1="42" x2="700" y2="292" gradientUnits="userSpaceOnUse">
      <stop stop-color="#F9FCFF"/>
      <stop offset="1" stop-color="#F2F6FC"/>
    </linearGradient>
    <linearGradient id="stroke" x1="18" y1="18" x2="742" y2="302" gradientUnits="userSpaceOnUse">
      <stop stop-color="#4DD7F0" stop-opacity="0.7"/>
      <stop offset="0.5" stop-color="#6D4DF2" stop-opacity="0.5"/>
      <stop offset="1" stop-color="#D84FD3" stop-opacity="0.7"/>
    </linearGradient>
    <linearGradient id="line1" x1="80" y1="215" x2="221" y2="105" gradientUnits="userSpaceOnUse">
      <stop stop-color="#17B6B4"/>
      <stop offset="1" stop-color="#6D4DF2"/>
    </linearGradient>
    <linearGradient id="line2" x1="104" y1="95" x2="232" y2="183" gradientUnits="userSpaceOnUse">
      <stop stop-color="#4DD7F0"/>
      <stop offset="1" stop-color="#D84FD3"/>
    </linearGradient>
    <linearGradient id="bar" x1="282" y1="214" x2="578" y2="214" gradientUnits="userSpaceOnUse">
      <stop stop-color="#17B6B4"/>
      <stop offset="0.5" stop-color="#6D4DF2"/>
      <stop offset="1" stop-color="#D84FD3"/>
    </linearGradient>
  </defs>
</svg>
